<?xml version="1.0" encoding="UTF-8"?>
<svg width="17px" height="10px" viewBox="0 0 17 10" version="1.1" xmlns="http://www.w3.org/2000/svg" xmlns:xlink="http://www.w3.org/1999/xlink">
    <!-- Generator: Sketch 42 (36781) - http://www.bohemiancoding.com/sketch -->
    <title>Shape</title>
    <desc>Created with Sketch.</desc>
    <defs></defs>
    <g id="Page-1" stroke="none" stroke-width="1" fill="none" fill-rule="evenodd">
        <path d="M16.102,1.063 C16.102,1.063 15.045,2.952 14.387,3.68 C13.728,4.408 12.55,5.69 11.095,6.331 C9.64,6.972 8.877,7.093 7.439,6.955 C6.002,6.817 4.667,5.985 4.199,5.638 C3.731,5.291 2.535,4.269 1.859,3.316 C1.183,2.363 0.126,0.457 0.126,0.457 C0.126,0.457 0.715,2.367 1.084,3.178 C1.296,3.645 1.948,5.072 2.873,6.314 C3.736,7.473 5.412,9.468 7.959,9.918 C10.506,10.369 12.256,9.225 12.689,8.948 C13.122,8.671 14.035,7.906 14.613,7.288 C15.216,6.643 15.787,5.82 16.103,5.326 C16.334,4.966 16.71,4.234 16.71,4.234 L16.102,1.063 Z" id="Shape" fill="#FFFFFF" fill-rule="nonzero"></path>
    </g>
</svg>