<svg xmlns="http://www.w3.org/2000/svg" xmlns:xlink="http://www.w3.org/1999/xlink" width="22" height="22" viewBox="0 0 22 22">
    <defs>
        <path id="a" d="M13.415.093H.015v14.634h13.4V.093z"/>
    </defs>
    <g fill="none" fill-rule="evenodd">
        <g transform="translate(7.619 .005)">
            <mask id="b" fill="#fff">
                <use xlink:href="#a"/>
            </mask>
            <path fill="#C0272D" d="M13.415 5.577c-.094.327-.125.668-.225.994-.245.8-.64 1.51-1.213 2.113-1.52 1.603-3.045 3.203-4.655 4.713-.848.796-1.889 1.224-3.056 1.313-1.289.099-2.451-.223-3.472-1.036a3.263 3.263 0 0 1-.422-.398c-.55-.628-.451-1.522.218-2.018.388-.287 1.101-.278 1.517.024.173.126.335.266.511.388 1.004.697 2.337.287 2.93-.282a115.575 115.575 0 0 0 4.45-4.506c.575-.616.862-1.364.72-2.225-.217-1.301-1.396-2.063-2.681-1.784-.678.147-1.168.568-1.639 1.031A162.22 162.22 0 0 0 4.42 5.89c-.121.124-.204.15-.361.045-.472-.315-1.02-.402-1.565-.476-.451-.061-.902-.073-1.348.065-.028-.1.043-.14.085-.183 1.31-1.354 2.608-2.72 3.992-3.995C5.98.647 6.914.299 7.919.14c.06-.01.124-.006.177-.047h.948c.315.054.64.035.95.121.644.18 1.217.503 1.727.939.718.614 1.25 1.36 1.544 2.273.096.3.102.613.13.923.004.047-.015.097.02.14v1.088z" mask="url(#b)"/>
        </g>
        <path fill="#196CAB" d="M12.295 16.048c.005.065-.035.088-.062.117-1.289 1.355-2.581 2.707-3.95 3.978-.956.887-2.116 1.3-3.41 1.306-1.442.005-2.666-.527-3.617-1.62-1.323-1.523-1.558-3.27-.906-5.16.248-.719.657-1.34 1.186-1.888 1.457-1.51 2.909-3.026 4.42-4.48 1.163-1.116 2.559-1.586 4.155-1.444 1.06.095 1.972.527 2.762 1.235.66.592.72 1.482.148 2.05a1.344 1.344 0 0 1-1.687.152c-.215-.15-.41-.326-.634-.465-.948-.589-2.192-.241-2.774.31a99.224 99.224 0 0 0-4.566 4.624c-.823.886-.91 2.23-.246 3.12.745.999 2.222 1.165 3.248.36.589-.462 1.098-1.013 1.628-1.54.349-.346.694-.696 1.04-1.046.076-.078.137-.132.263-.063a4.2 4.2 0 0 0 2.93.455c.019-.004.04 0 .072 0"/>
    </g>
</svg>
