<svg style="position: absolute; width: 0; height: 0; overflow: hidden;" version="1.1" xmlns="http://www.w3.org/2000/svg">
<defs>
<symbol id="icon-default" viewBox="0 0 26 28">
<title>default</title>
<path d="M23.156 16.406c0.953 0.547 1.281 1.781 0.734 2.734l-1 1.719c-0.547 0.953-1.781 1.281-2.734 0.734l-4.156-2.391v4.797c0 1.094-0.906 2-2 2h-2c-1.094 0-2-0.906-2-2v-4.797l-4.156 2.391c-0.953 0.547-2.187 0.219-2.734-0.734l-1-1.719c-0.547-0.953-0.219-2.188 0.734-2.734l4.156-2.406-4.156-2.406c-0.953-0.547-1.281-1.781-0.734-2.734l1-1.719c0.547-0.953 1.781-1.281 2.734-0.734l4.156 2.391v-4.797c0-1.094 0.906-2 2-2h2c1.094 0 2 0.906 2 2v4.797l4.156-2.391c0.953-0.547 2.188-0.219 2.734 0.734l1 1.719c0.547 0.953 0.219 2.188-0.734 2.734l-4.156 2.406z"></path>
</symbol>
<symbol id="icon-book" viewBox="0 0 47 48">
<title>Book</title><g fill-rule="nonzero" fill="none"><path d="M46.777 23.769c0 12.986-10.472 23.514-23.389 23.514S0 36.755 0 23.769C0 10.782 10.471.254 23.388.254c12.917 0 23.389 10.528 23.389 23.515" fill="#BCCBD3"/><path d="M37.673 12.639H9.103a.716.716 0 0 0-.714.718V34.9c0 .397.32.718.714.718H19.3c.681 0 1.347.31 1.726.88a2.83 2.83 0 0 0 4.727-.001c.379-.57 1.044-.879 1.726-.879h10.195a.716.716 0 0 0 .715-.718V13.357a.716.716 0 0 0-.715-.718" fill="#C0272D"/><path d="M10.532 20.538v12.926H21.96c.789 0 1.428.643 1.428 1.436 0-.793.64-1.436 1.429-1.436h11.428V20.538H10.532z" fill="#BCCBD3"/><path d="M25.53 9.767a2.149 2.149 0 0 0-2.142 2.154c0-1.19-.959-2.154-2.142-2.154H10.532v22.26H21.96c.789 0 1.428.643 1.428 1.437 0-.794.64-1.436 1.429-1.436h11.428V9.767H25.53z" fill="#FFF"/><path fill="#196CAB" d="M13.389 16.947h2.856v-5.026H13.39z"/><path d="M21.246 19.46h-7.857a.359.359 0 0 1 0-.718h7.857c.197 0 .356.161.356.36 0 .198-.16.359-.356.359m0-2.154h-3.144a.358.358 0 0 1-.357-.36c0-.198.16-.359.357-.359h3.144c.197 0 .356.161.356.36 0 .198-.16.359-.356.359m0-2.155h-3.144a.358.358 0 0 1-.357-.359c0-.198.16-.359.357-.359h3.144c.197 0 .356.16.356.36 0 .198-.16.358-.356.358m0-2.154h-3.144a.358.358 0 0 1-.357-.359c0-.198.16-.359.357-.359h3.144c.197 0 .356.16.356.36 0 .197-.16.358-.356.358m0 8.617h-7.857a.359.359 0 0 1 0-.718h7.857c.197 0 .356.161.356.36 0 .197-.16.358-.356.358m0 2.155h-7.857a.359.359 0 0 1 0-.718h7.857c.197 0 .356.16.356.359 0 .198-.16.358-.356.358m0 2.155h-7.857a.359.359 0 0 1 0-.718h7.857c.197 0 .356.16.356.359 0 .198-.16.359-.356.359m0 2.154h-7.857a.359.359 0 0 1 0-.718h7.857c.197 0 .356.16.356.359 0 .198-.16.359-.356.359m0 2.154h-7.857a.359.359 0 0 1 0-.718h7.857c.197 0 .356.16.356.36 0 .197-.16.358-.356.358M33.388 19.46H25.53a.359.359 0 1 1 0-.718h7.857c.197 0 .357.161.357.36 0 .198-.16.359-.357.359m.001 2.154H25.53a.358.358 0 0 1-.357-.359c0-.198.16-.359.357-.359h7.857a.359.359 0 0 1 0 .718m.001-6.463H25.53a.358.358 0 0 1-.357-.359c0-.198.16-.359.357-.359h7.857c.197 0 .357.16.357.36 0 .198-.16.358-.357.358m.001-2.154H25.53a.358.358 0 0 1-.357-.359c0-.198.16-.359.357-.359h7.857c.197 0 .357.16.357.36 0 .197-.16.358-.357.358m.001 4.309H25.53a.358.358 0 0 1-.357-.36c0-.198.16-.359.357-.359h7.857c.197 0 .357.161.357.36 0 .198-.16.359-.357.359m.001 6.463H25.53a.358.358 0 0 1-.357-.36c0-.198.16-.359.357-.359h7.857a.359.359 0 0 1 0 .718m.001 2.155H25.53a.358.358 0 0 1-.357-.36c0-.198.16-.358.357-.358h7.857a.358.358 0 1 1 0 .718m.001 2.154H25.53a.358.358 0 0 1-.357-.359c0-.198.16-.36.357-.36h7.857a.36.36 0 0 1 0 .719m.001 2.154H25.53a.358.358 0 0 1-.357-.359c0-.198.16-.359.357-.359h7.857c.197 0 .357.16.357.36 0 .197-.16.358-.357.358" fill="#036"/></g>
</symbol>
<symbol id="icon-search" viewBox="0 0 26 28">
<title>search</title>
<path d="M18 13c0-3.859-3.141-7-7-7s-7 3.141-7 7 3.141 7 7 7 7-3.141 7-7zM26 26c0 1.094-0.906 2-2 2-0.531 0-1.047-0.219-1.406-0.594l-5.359-5.344c-1.828 1.266-4.016 1.937-6.234 1.937-6.078 0-11-4.922-11-11s4.922-11 11-11 11 4.922 11 11c0 2.219-0.672 4.406-1.937 6.234l5.359 5.359c0.359 0.359 0.578 0.875 0.578 1.406z"></path>
</symbol>
<symbol id="icon-cancel-rect" viewBox="0 0 28 28">
<title>cancel-rect</title>
<path d="M18.359 20.641l2.281-2.281c0.203-0.203 0.203-0.516 0-0.719l-3.641-3.641 3.641-3.641c0.203-0.203 0.203-0.516 0-0.719l-2.281-2.281c-0.203-0.203-0.516-0.203-0.719 0l-3.641 3.641-3.641-3.641c-0.203-0.203-0.516-0.203-0.719 0l-2.281 2.281c-0.203 0.203-0.203 0.516 0 0.719l3.641 3.641-3.641 3.641c-0.203 0.203-0.203 0.516 0 0.719l2.281 2.281c0.203 0.203 0.516 0.203 0.719 0l3.641-3.641 3.641 3.641c0.203 0.203 0.516 0.203 0.719 0zM28 4.5v19c0 1.375-1.125 2.5-2.5 2.5h-23c-1.375 0-2.5-1.125-2.5-2.5v-19c0-1.375 1.125-2.5 2.5-2.5h23c1.375 0 2.5 1.125 2.5 2.5z"></path>
</symbol>
<symbol id="icon-chevron-right" viewBox="0 0 19 28">
<title>chevron-right</title>
<path d="M17.297 13.703l-11.594 11.594c-0.391 0.391-1.016 0.391-1.406 0l-2.594-2.594c-0.391-0.391-0.391-1.016 0-1.406l8.297-8.297-8.297-8.297c-0.391-0.391-0.391-1.016 0-1.406l2.594-2.594c0.391-0.391 1.016-0.391 1.406 0l11.594 11.594c0.391 0.391 0.391 1.016 0 1.406z"></path>
</symbol>
<symbol id="icon-chevron-left" viewBox="0 0 21 28">
<title>chevron-left</title>
<path d="M18.297 4.703l-8.297 8.297 8.297 8.297c0.391 0.391 0.391 1.016 0 1.406l-2.594 2.594c-0.391 0.391-1.016 0.391-1.406 0l-11.594-11.594c-0.391-0.391-0.391-1.016 0-1.406l11.594-11.594c0.391-0.391 1.016-0.391 1.406 0l2.594 2.594c0.391 0.391 0.391 1.016 0 1.406z"></path>
</symbol>
<symbol id="icon-chevron-down" viewBox="0 0 28 28">
<title>chevron-down</title>
<path d="M26.297 12.625l-11.594 11.578c-0.391 0.391-1.016 0.391-1.406 0l-11.594-11.578c-0.391-0.391-0.391-1.031 0-1.422l2.594-2.578c0.391-0.391 1.016-0.391 1.406 0l8.297 8.297 8.297-8.297c0.391-0.391 1.016-0.391 1.406 0l2.594 2.578c0.391 0.391 0.391 1.031 0 1.422z"></path>
</symbol>
<symbol id="icon-chevron-up" viewBox="0 0 28 28">
<title>chevron-up</title>
<path d="M26.297 20.797l-2.594 2.578c-0.391 0.391-1.016 0.391-1.406 0l-8.297-8.297-8.297 8.297c-0.391 0.391-1.016 0.391-1.406 0l-2.594-2.578c-0.391-0.391-0.391-1.031 0-1.422l11.594-11.578c0.391-0.391 1.016-0.391 1.406 0l11.594 11.578c0.391 0.391 0.391 1.031 0 1.422z"></path>
</symbol>
<symbol id="icon-comments" viewBox="0 0 28 28">
<title>comments</title>
<path d="M22 12c0 4.422-4.922 8-11 8-0.953 0-1.875-0.094-2.75-0.25-1.297 0.922-2.766 1.594-4.344 2-0.422 0.109-0.875 0.187-1.344 0.25h-0.047c-0.234 0-0.453-0.187-0.5-0.453v0c-0.063-0.297 0.141-0.484 0.313-0.688 0.609-0.688 1.297-1.297 1.828-2.594-2.531-1.469-4.156-3.734-4.156-6.266 0-4.422 4.922-8 11-8s11 3.578 11 8zM28 16c0 2.547-1.625 4.797-4.156 6.266 0.531 1.297 1.219 1.906 1.828 2.594 0.172 0.203 0.375 0.391 0.313 0.688v0c-0.063 0.281-0.297 0.484-0.547 0.453-0.469-0.063-0.922-0.141-1.344-0.25-1.578-0.406-3.047-1.078-4.344-2-0.875 0.156-1.797 0.25-2.75 0.25-2.828 0-5.422-0.781-7.375-2.063 0.453 0.031 0.922 0.063 1.375 0.063 3.359 0 6.531-0.969 8.953-2.719 2.609-1.906 4.047-4.484 4.047-7.281 0-0.812-0.125-1.609-0.359-2.375 2.641 1.453 4.359 3.766 4.359 6.375z"></path>
</symbol>
<symbol id="icon-checkmark" viewBox="0 0 44 40">
  <g id="Page-1" stroke="none" stroke-width="1" fill="none" fill-rule="evenodd">
      <path d="M38.773,19.804 C38.773,30.264 30.247,38.742 19.728,38.742 C9.211,38.742 0.684,30.263 0.684,19.804 C0.684,9.345 9.211,0.866 19.728,0.866 C30.247,0.866 38.773,9.345 38.773,19.804" id="Shape" fill="#FFFFFF" fill-rule="nonzero"></path>
      <path d="M19.728,1.547 C9.605,1.547 1.368,9.737 1.368,19.805 C1.368,29.872 9.605,38.063 19.728,38.063 C29.853,38.063 38.089,29.873 38.089,19.805 C38.089,9.737 29.853,1.547 19.729,1.547 M19.729,39.423 C8.85,39.423 -0.001,30.623 -0.001,19.805 C-2.16840434e-19,8.987 8.85,0.186 19.73,0.186 C30.608,0.186 39.458,8.987 39.458,19.805 C39.458,30.622 30.608,39.423 19.729,39.423" id="Shape" fill="#BCCBD3" fill-rule="nonzero"></path>
      <path d="M35.533,19.893 C35.483,28.573 28.367,35.57 19.639,35.52 C10.91,35.471 3.874,28.395 3.924,19.715 C3.974,11.035 11.09,4.038 19.819,4.088 C28.547,4.137 35.583,11.213 35.533,19.893" id="Shape" fill="#EDCF09" fill-rule="nonzero"></path>
      <polygon id="Shape" fill="#003366" fill-rule="nonzero" points="43.287 4.047 19.567 22.768 7.485 16.292 7.835 19.231 19.566 30.897 43.512 7.085"></polygon>
      <polygon id="Shape" fill="#196CAB" fill-rule="nonzero" points="39.215 0.092 19.33 19.812 11.696 12.2 7.603 16.26 19.319 27.941 43.297 4.162"></polygon>
  </g>
</symbol>
<symbol id="icon-lightbulb" viewBox="0 0 51 60">
  <g stroke="none" stroke-width="1" fill="none" fill-rule="evenodd">
    <path d="M35.997,24.132 C36.23,21.212 34.208,18.108 31.931,16.399 C30.825,15.569 24.073,12.442 24.111,15.415 C24.134,17.125 26.821,16.67 27.977,17.071 C29.497,17.599 30.938,18.609 31.925,19.863 C33.129,21.393 33.131,22.897 33.559,24.689 C33.731,25.409 34.086,26.004 34.955,25.861 C35.899,25.705 35.997,24.908 35.997,24.132 M37.635,33.312 C37.179,33.863 36.825,34.493 36.391,35.043 C35.341,36.37 34.121,37.515 33.438,39.159 C32.685,40.969 33.241,43.378 31.943,44.907 C30.63,46.453 28.277,46.029 26.459,46.039 C24.197,46.051 21.396,46.466 19.203,45.896 C17.41,45.43 16.737,43.891 16.642,42.224 C16.515,39.994 15.814,38.229 14.34,36.527 C12.898,34.861 11.54,33.132 10.532,31.173 C6.647,23.623 10.684,15.164 18.134,11.69 C24.735,8.613 32.694,10.703 37.189,16.17 C38.915,18.271 40.094,20.644 40.428,23.368 C40.6680364,25.3802851 40.4516809,27.420794 39.795,29.338 C39.308,30.768 38.194,31.905 37.635,33.312" id="Shape" fill="#EDCF09" fill-rule="nonzero"></path>
    <path d="M24.744,52.132 C26.714,52.132 28.684,52.126 30.654,52.136 C31.426,52.14 31.874,52.582 31.858,53.277 C31.846,53.787 31.531,54.193 31.018,54.298 C30.7393869,54.349562 30.4562998,54.373013 30.173,54.368 C26.617,54.373 23.062,54.373 19.506,54.371 C19.239,54.371 18.971,54.356 18.706,54.329 C18.004,54.257 17.566,53.793 17.606,53.174 C17.644,52.564 18.136,52.137 18.835,52.134 C20.805,52.128 22.775,52.132 24.745,52.132 L24.744,52.132 Z M24.747,48.733 C22.745,48.733 20.742,48.74 18.739,48.729 C18.085,48.725 17.625,48.264 17.609,47.653 C17.593,47.038 18.033,46.588 18.699,46.546 C18.899,46.533 19.099,46.534 19.299,46.534 L29.513,46.535 C29.947,46.535 30.382,46.52 30.814,46.544 C31.48,46.581 31.871,47.024 31.85,47.683 C31.832,48.273 31.38,48.725 30.755,48.727 C28.753,48.737 26.75,48.73 24.747,48.73 L24.747,48.733 L24.747,48.733 Z M24.744,49.345 C26.731,49.345 28.718,49.339 30.704,49.347 C31.294,49.35 31.711,49.667 31.824,50.148 C31.946,50.674 31.736,51.163 31.275,51.406 C30.983,51.56 30.659,51.536 30.344,51.536 C26.987,51.539 23.631,51.539 20.274,51.539 C19.757,51.539 19.239,51.553 18.722,51.529 C18.07,51.496 17.596,51.012 17.606,50.431 C17.616,49.825 18.076,49.381 18.733,49.345 C18.833,49.34 18.933,49.342 19.033,49.342 L24.744,49.342 L24.744,49.345 L24.744,49.345 Z M24.748,57.16 C23.098,57.16 21.446,57.168 19.796,57.158 C18.976,57.153 18.459,56.623 18.549,55.899 C18.604,55.454 18.855,55.156 19.298,55.014 C19.573,54.926 19.855,54.922 20.138,54.922 L29.493,54.925 C29.83,54.925 30.164,54.941 30.454,55.132 C30.854,55.396 31.054,55.922 30.925,56.336 C30.778,56.808 30.335,57.149 29.801,57.153 C28.233,57.166 26.666,57.163 25.099,57.166 L24.749,57.166 L24.749,57.161 L24.748,57.16 Z M24.746,59.91 C23.644,59.91 22.543,59.918 21.442,59.906 C20.896,59.901 20.47,59.672 20.276,59.144 C20.111,58.697 20.24,58.306 20.584,57.983 C20.826,57.755 21.127,57.669 21.454,57.669 C23.639,57.667 25.825,57.662 28.01,57.671 C28.76,57.675 29.264,58.145 29.26,58.793 C29.257,59.45 28.774,59.893 27.999,59.903 C26.915,59.918 25.83,59.907 24.746,59.907 L24.746,59.91 L24.746,59.91 Z" id="Shape" fill="#00808C" fill-rule="nonzero"></path>
    <path d="M35.997,24.132 C35.997,24.307 36.02,24.555 35.993,24.797 C35.924,25.413 35.413,25.862 34.772,25.895 C34.2006366,25.9125772 33.701784,25.5109478 33.597,24.949 C33.471,24.259 33.468,23.544 33.321,22.859 C32.793,20.397 31.24,18.709 29.038,17.532 C27.9461607,16.9488282 26.7257891,16.6480324 25.488,16.657 C24.678,16.657 24.193,16.258 24.116,15.583 C24.021,14.75 24.461,14.259 25.313,14.257 C30.593,14.246 34.593,17.677 35.753,22.07 C35.923,22.715 36.057,23.381 35.997,24.132" id="Shape" fill="#003366" fill-rule="nonzero"></path>
    <path d="M1.869,36.183 C1.51346123,36.1849571 1.19293643,35.9691582 1.061,35.639 C0.979170506,35.42788 0.985493072,35.1927514 1.07855007,34.986334 C1.17160707,34.7799167 1.34361257,34.6194812 1.556,34.541 L4.979,33.242 C5.42239908,33.0714512 5.92067906,33.2876691 6.099,33.728 C6.18077972,33.9392483 6.17431693,34.1744864 6.08106191,34.380926 C5.98780688,34.5873655 5.81556935,34.7477181 5.603,34.826 L2.18,36.126 C2.08065473,36.1637277 1.97526786,36.183043 1.869,36.183" id="Shape" fill="#C0272D" fill-rule="nonzero"></path>
    <path d="M11.367,10.247 C11.1401623,10.2476212 10.9220312,10.159723 10.759,10.002 L8.271,7.593 C8.1081252,7.43618681 8.01543376,7.2202749 8.01392775,6.99418574 C8.01242174,6.76809658 8.10222867,6.55096903 8.263,6.392 C8.60110277,6.05769684 9.14401783,6.05370482 9.487,6.383 L11.975,8.793 C12.1373107,8.94991713 12.2296254,9.16556378 12.2311305,9.39131913 C12.2326355,9.61707448 12.1432041,9.83393277 11.983,9.993 C11.8194473,10.1559642 11.5978825,10.2473237 11.367,10.247" id="Path" fill="#C0272D"></path>
    <path d="M25.345,5.211 C25.1174413,5.21313165 24.8983571,5.12477354 24.7359484,4.9653655 C24.5735397,4.80595745 24.4811119,4.58855887 24.479,4.361 L24.479,0.85 C24.479,0.381 24.867,0.001 25.345,0.001 C25.823,0.001 26.21,0.381 26.21,0.851 L26.21,4.363 C26.21,4.833 25.823,5.213 25.345,5.213" id="Path" fill="#C0272D"></path>
    <path d="M48.698,36.183 C48.5913383,36.1828005 48.4856077,36.1631454 48.386,36.125 L44.963,34.826 C44.7504388,34.7477454 44.5782531,34.5873357 44.4851613,34.3808412 C44.3920696,34.1743467 44.3858856,33.9391001 44.468,33.728 C44.6459,33.287802 45.1438742,33.0715237 45.587,33.242 L49.01,34.541 C49.456,34.711 49.677,35.201 49.505,35.639 C49.3731974,35.9688173 49.0531746,36.1845452 48.698,36.183" id="Path" fill="#C0272D"></path>
    <path d="M46.272,21.202 C45.8685904,21.2039099 45.5176819,20.92609 45.427,20.533 C45.379762,20.3111797 45.4231294,20.0796801 45.5474549,19.8899992 C45.6717804,19.7003183 45.8667529,19.5681875 46.089,19.523 L49.64,18.764 C50.103537,18.6612749 50.5632364,18.9513765 50.67,19.414 C50.717238,19.6358203 50.6738706,19.8673199 50.5495451,20.0570008 C50.4252196,20.2466817 50.2302471,20.3788125 50.008,20.424 L46.456,21.182 C46.3955378,21.1951013 46.333865,21.2018049 46.272,21.202" id="Path" fill="#C0272D"></path>
    <path d="M39.323,10.247 C39.0919361,10.2477448 38.8700232,10.1567497 38.706,9.994 C38.5453011,9.83472457 38.455651,9.6173564 38.457345,9.3911045 C38.4590391,9.1648526 38.5519341,8.94885123 38.715,8.792 L41.203,6.383 C41.5459822,6.05370482 42.0888972,6.05769684 42.427,6.392 C42.5876411,6.5511031 42.6772686,6.76830689 42.6755744,6.99439648 C42.6738801,7.22048606 42.5810075,7.43632224 42.418,7.593 L39.93,10.002 C39.7672171,10.1594816 39.549492,10.2473608 39.323,10.247" id="Path" fill="#C0272D"></path>
    <path d="M4.418,21.203 C4.35580063,21.2028752 4.29378895,21.1961712 4.233,21.183 L0.682,20.424 C0.459752926,20.3788125 0.264780424,20.2466817 0.140454922,20.0570008 C0.0161294194,19.8673199 -0.0272379722,19.6358203 0.02,19.414 C0.126763553,18.9513765 0.586463048,18.6612749 1.05,18.764 L4.6,19.524 C4.82243136,19.5689585 5.01765006,19.7009937 5.14218099,19.8907015 C5.26671191,20.0804092 5.31021423,20.3120365 5.263,20.534 C5.17271853,20.9274876 4.8217078,21.2058038 4.418,21.204" id="Shape" fill="#C0272D" fill-rule="nonzero"></path>
</g>
</symbol>
</defs>
</svg>