<svg style="position: absolute; width: 0; height: 0; overflow: hidden;" version="1.1" xmlns="http://www.w3.org/2000/svg">
<defs>
<symbol id="icon-book" viewBox="0 0 47 48">
<title>Book</title><g fill-rule="nonzero" fill="none"><path d="M46.777 23.769c0 12.986-10.472 23.514-23.389 23.514S0 36.755 0 23.769C0 10.782 10.471.254 23.388.254c12.917 0 23.389 10.528 23.389 23.515" fill="#BCCBD3"/><path d="M37.673 12.639H9.103a.716.716 0 0 0-.714.718V34.9c0 .397.32.718.714.718H19.3c.681 0 1.347.31 1.726.88a2.83 2.83 0 0 0 4.727-.001c.379-.57 1.044-.879 1.726-.879h10.195a.716.716 0 0 0 .715-.718V13.357a.716.716 0 0 0-.715-.718" fill="#C0272D"/><path d="M10.532 20.538v12.926H21.96c.789 0 1.428.643 1.428 1.436 0-.793.64-1.436 1.429-1.436h11.428V20.538H10.532z" fill="#BCCBD3"/><path d="M25.53 9.767a2.149 2.149 0 0 0-2.142 2.154c0-1.19-.959-2.154-2.142-2.154H10.532v22.26H21.96c.789 0 1.428.643 1.428 1.437 0-.794.64-1.436 1.429-1.436h11.428V9.767H25.53z" fill="#FFF"/><path fill="#196CAB" d="M13.389 16.947h2.856v-5.026H13.39z"/><path d="M21.246 19.46h-7.857a.359.359 0 0 1 0-.718h7.857c.197 0 .356.161.356.36 0 .198-.16.359-.356.359m0-2.154h-3.144a.358.358 0 0 1-.357-.36c0-.198.16-.359.357-.359h3.144c.197 0 .356.161.356.36 0 .198-.16.359-.356.359m0-2.155h-3.144a.358.358 0 0 1-.357-.359c0-.198.16-.359.357-.359h3.144c.197 0 .356.16.356.36 0 .198-.16.358-.356.358m0-2.154h-3.144a.358.358 0 0 1-.357-.359c0-.198.16-.359.357-.359h3.144c.197 0 .356.16.356.36 0 .197-.16.358-.356.358m0 8.617h-7.857a.359.359 0 0 1 0-.718h7.857c.197 0 .356.161.356.36 0 .197-.16.358-.356.358m0 2.155h-7.857a.359.359 0 0 1 0-.718h7.857c.197 0 .356.16.356.359 0 .198-.16.358-.356.358m0 2.155h-7.857a.359.359 0 0 1 0-.718h7.857c.197 0 .356.16.356.359 0 .198-.16.359-.356.359m0 2.154h-7.857a.359.359 0 0 1 0-.718h7.857c.197 0 .356.16.356.359 0 .198-.16.359-.356.359m0 2.154h-7.857a.359.359 0 0 1 0-.718h7.857c.197 0 .356.16.356.36 0 .197-.16.358-.356.358M33.388 19.46H25.53a.359.359 0 1 1 0-.718h7.857c.197 0 .357.161.357.36 0 .198-.16.359-.357.359m.001 2.154H25.53a.358.358 0 0 1-.357-.359c0-.198.16-.359.357-.359h7.857a.359.359 0 0 1 0 .718m.001-6.463H25.53a.358.358 0 0 1-.357-.359c0-.198.16-.359.357-.359h7.857c.197 0 .357.16.357.36 0 .198-.16.358-.357.358m.001-2.154H25.53a.358.358 0 0 1-.357-.359c0-.198.16-.359.357-.359h7.857c.197 0 .357.16.357.36 0 .197-.16.358-.357.358m.001 4.309H25.53a.358.358 0 0 1-.357-.36c0-.198.16-.359.357-.359h7.857c.197 0 .357.161.357.36 0 .198-.16.359-.357.359m.001 6.463H25.53a.358.358 0 0 1-.357-.36c0-.198.16-.359.357-.359h7.857a.359.359 0 0 1 0 .718m.001 2.155H25.53a.358.358 0 0 1-.357-.36c0-.198.16-.358.357-.358h7.857a.358.358 0 1 1 0 .718m.001 2.154H25.53a.358.358 0 0 1-.357-.359c0-.198.16-.36.357-.36h7.857a.36.36 0 0 1 0 .719m.001 2.154H25.53a.358.358 0 0 1-.357-.359c0-.198.16-.359.357-.359h7.857c.197 0 .357.16.357.36 0 .197-.16.358-.357.358" fill="#036"/></g>
</symbol>
<symbol id="icon-search" viewBox="0 0 26 28">
<title>search</title>
<path d="M18 13c0-3.859-3.141-7-7-7s-7 3.141-7 7 3.141 7 7 7 7-3.141 7-7zM26 26c0 1.094-0.906 2-2 2-0.531 0-1.047-0.219-1.406-0.594l-5.359-5.344c-1.828 1.266-4.016 1.937-6.234 1.937-6.078 0-11-4.922-11-11s4.922-11 11-11 11 4.922 11 11c0 2.219-0.672 4.406-1.937 6.234l5.359 5.359c0.359 0.359 0.578 0.875 0.578 1.406z"></path>
</symbol>
<symbol id="icon-cancel-rect" viewBox="0 0 28 28">
<title>cancel-rect</title>
<path d="M18.359 20.641l2.281-2.281c0.203-0.203 0.203-0.516 0-0.719l-3.641-3.641 3.641-3.641c0.203-0.203 0.203-0.516 0-0.719l-2.281-2.281c-0.203-0.203-0.516-0.203-0.719 0l-3.641 3.641-3.641-3.641c-0.203-0.203-0.516-0.203-0.719 0l-2.281 2.281c-0.203 0.203-0.203 0.516 0 0.719l3.641 3.641-3.641 3.641c-0.203 0.203-0.203 0.516 0 0.719l2.281 2.281c0.203 0.203 0.516 0.203 0.719 0l3.641-3.641 3.641 3.641c0.203 0.203 0.516 0.203 0.719 0zM28 4.5v19c0 1.375-1.125 2.5-2.5 2.5h-23c-1.375 0-2.5-1.125-2.5-2.5v-19c0-1.375 1.125-2.5 2.5-2.5h23c1.375 0 2.5 1.125 2.5 2.5z"></path>
</symbol>
</defs>
</svg>